<svg viewBox="0 0 1280 360" width="100%" xmlns="http://www.w3.org/2000/svg" font-family="sans-serif">
  <defs>
    <linearGradient id="bg" x1="0" y1="0" x2="1" y2="1">
      <stop offset="0" stop-color="#0A0E16"/>
      <stop offset="0.55" stop-color="#0B1119"/>
      <stop offset="1" stop-color="#0D1521"/>
    </linearGradient>
    <radialGradient id="glowBg" cx="0.82" cy="0.28" r="0.55">
      <stop offset="0" stop-color="#114B45" stop-opacity="0.55"/>
      <stop offset="1" stop-color="#0A0E16" stop-opacity="0"/>
    </radialGradient>
    <linearGradient id="wmGrad" x1="0" y1="0" x2="1" y2="0">
      <stop offset="0" stop-color="#FFFFFF"/>
      <stop offset="0.7" stop-color="#EAF2F4"/>
      <stop offset="1" stop-color="#BFEFE6"/>
    </linearGradient>
    <linearGradient id="edgeGrad" x1="0" y1="0" x2="1" y2="1">
      <stop offset="0" stop-color="#2DD4BF" stop-opacity="0.15"/>
      <stop offset="1" stop-color="#2DD4BF" stop-opacity="0.55"/>
    </linearGradient>
    <filter id="glow" x="-200%" y="-200%" width="500%" height="500%">
      <feGaussianBlur stdDeviation="6" result="b"/>
      <feMerge><feMergeNode in="b"/><feMergeNode in="b"/></feMerge>
    </filter>
  </defs>

  <rect width="1280" height="360" fill="url(#bg)"/>
  <rect width="1280" height="360" fill="url(#glowBg)"/>
  <g opacity="0.5"><circle cx="60" cy="60" r="1" fill="#1B2433"/><circle cx="94" cy="60" r="1" fill="#1B2433"/><circle cx="128" cy="60" r="1" fill="#1B2433"/><circle cx="162" cy="60" r="1" fill="#1B2433"/><circle cx="196" cy="60" r="1" fill="#1B2433"/><circle cx="230" cy="60" r="1" fill="#1B2433"/><circle cx="264" cy="60" r="1" fill="#1B2433"/><circle cx="298" cy="60" r="1" fill="#1B2433"/><circle cx="332" cy="60" r="1" fill="#1B2433"/><circle cx="366" cy="60" r="1" fill="#1B2433"/><circle cx="400" cy="60" r="1" fill="#1B2433"/><circle cx="434" cy="60" r="1" fill="#1B2433"/><circle cx="468" cy="60" r="1" fill="#1B2433"/><circle cx="502" cy="60" r="1" fill="#1B2433"/><circle cx="536" cy="60" r="1" fill="#1B2433"/><circle cx="570" cy="60" r="1" fill="#1B2433"/><circle cx="604" cy="60" r="1" fill="#1B2433"/><circle cx="638" cy="60" r="1" fill="#1B2433"/><circle cx="672" cy="60" r="1" fill="#1B2433"/><circle cx="706" cy="60" r="1" fill="#1B2433"/><circle cx="740" cy="60" r="1" fill="#1B2433"/><circle cx="774" cy="60" r="1" fill="#1B2433"/><circle cx="808" cy="60" r="1" fill="#1B2433"/><circle cx="60" cy="94" r="1" fill="#1B2433"/><circle cx="94" cy="94" r="1" fill="#1B2433"/><circle cx="128" cy="94" r="1" fill="#1B2433"/><circle cx="162" cy="94" r="1" fill="#1B2433"/><circle cx="196" cy="94" r="1" fill="#1B2433"/><circle cx="230" cy="94" r="1" fill="#1B2433"/><circle cx="264" cy="94" r="1" fill="#1B2433"/><circle cx="298" cy="94" r="1" fill="#1B2433"/><circle cx="332" cy="94" r="1" fill="#1B2433"/><circle cx="366" cy="94" r="1" fill="#1B2433"/><circle cx="400" cy="94" r="1" fill="#1B2433"/><circle cx="434" cy="94" r="1" fill="#1B2433"/><circle cx="468" cy="94" r="1" fill="#1B2433"/><circle cx="502" cy="94" r="1" fill="#1B2433"/><circle cx="536" cy="94" r="1" fill="#1B2433"/><circle cx="570" cy="94" r="1" fill="#1B2433"/><circle cx="604" cy="94" r="1" fill="#1B2433"/><circle cx="638" cy="94" r="1" fill="#1B2433"/><circle cx="672" cy="94" r="1" fill="#1B2433"/><circle cx="706" cy="94" r="1" fill="#1B2433"/><circle cx="740" cy="94" r="1" fill="#1B2433"/><circle cx="774" cy="94" r="1" fill="#1B2433"/><circle cx="808" cy="94" r="1" fill="#1B2433"/><circle cx="60" cy="128" r="1" fill="#1B2433"/><circle cx="94" cy="128" r="1" fill="#1B2433"/><circle cx="128" cy="128" r="1" fill="#1B2433"/><circle cx="162" cy="128" r="1" fill="#1B2433"/><circle cx="196" cy="128" r="1" fill="#1B2433"/><circle cx="230" cy="128" r="1" fill="#1B2433"/><circle cx="264" cy="128" r="1" fill="#1B2433"/><circle cx="298" cy="128" r="1" fill="#1B2433"/><circle cx="332" cy="128" r="1" fill="#1B2433"/><circle cx="366" cy="128" r="1" fill="#1B2433"/><circle cx="400" cy="128" r="1" fill="#1B2433"/><circle cx="434" cy="128" r="1" fill="#1B2433"/><circle cx="468" cy="128" r="1" fill="#1B2433"/><circle cx="502" cy="128" r="1" fill="#1B2433"/><circle cx="536" cy="128" r="1" fill="#1B2433"/><circle cx="570" cy="128" r="1" fill="#1B2433"/><circle cx="604" cy="128" r="1" fill="#1B2433"/><circle cx="638" cy="128" r="1" fill="#1B2433"/><circle cx="672" cy="128" r="1" fill="#1B2433"/><circle cx="706" cy="128" r="1" fill="#1B2433"/><circle cx="740" cy="128" r="1" fill="#1B2433"/><circle cx="774" cy="128" r="1" fill="#1B2433"/><circle cx="808" cy="128" r="1" fill="#1B2433"/><circle cx="60" cy="162" r="1" fill="#1B2433"/><circle cx="94" cy="162" r="1" fill="#1B2433"/><circle cx="128" cy="162" r="1" fill="#1B2433"/><circle cx="162" cy="162" r="1" fill="#1B2433"/><circle cx="196" cy="162" r="1" fill="#1B2433"/><circle cx="230" cy="162" r="1" fill="#1B2433"/><circle cx="264" cy="162" r="1" fill="#1B2433"/><circle cx="298" cy="162" r="1" fill="#1B2433"/><circle cx="332" cy="162" r="1" fill="#1B2433"/><circle cx="366" cy="162" r="1" fill="#1B2433"/><circle cx="400" cy="162" r="1" fill="#1B2433"/><circle cx="434" cy="162" r="1" fill="#1B2433"/><circle cx="468" cy="162" r="1" fill="#1B2433"/><circle cx="502" cy="162" r="1" fill="#1B2433"/><circle cx="536" cy="162" r="1" fill="#1B2433"/><circle cx="570" cy="162" r="1" fill="#1B2433"/><circle cx="604" cy="162" r="1" fill="#1B2433"/><circle cx="638" cy="162" r="1" fill="#1B2433"/><circle cx="672" cy="162" r="1" fill="#1B2433"/><circle cx="706" cy="162" r="1" fill="#1B2433"/><circle cx="740" cy="162" r="1" fill="#1B2433"/><circle cx="774" cy="162" r="1" fill="#1B2433"/><circle cx="808" cy="162" r="1" fill="#1B2433"/><circle cx="60" cy="196" r="1" fill="#1B2433"/><circle cx="94" cy="196" r="1" fill="#1B2433"/><circle cx="128" cy="196" r="1" fill="#1B2433"/><circle cx="162" cy="196" r="1" fill="#1B2433"/><circle cx="196" cy="196" r="1" fill="#1B2433"/><circle cx="230" cy="196" r="1" fill="#1B2433"/><circle cx="264" cy="196" r="1" fill="#1B2433"/><circle cx="298" cy="196" r="1" fill="#1B2433"/><circle cx="332" cy="196" r="1" fill="#1B2433"/><circle cx="366" cy="196" r="1" fill="#1B2433"/><circle cx="400" cy="196" r="1" fill="#1B2433"/><circle cx="434" cy="196" r="1" fill="#1B2433"/><circle cx="468" cy="196" r="1" fill="#1B2433"/><circle cx="502" cy="196" r="1" fill="#1B2433"/><circle cx="536" cy="196" r="1" fill="#1B2433"/><circle cx="570" cy="196" r="1" fill="#1B2433"/><circle cx="604" cy="196" r="1" fill="#1B2433"/><circle cx="638" cy="196" r="1" fill="#1B2433"/><circle cx="672" cy="196" r="1" fill="#1B2433"/><circle cx="706" cy="196" r="1" fill="#1B2433"/><circle cx="740" cy="196" r="1" fill="#1B2433"/><circle cx="774" cy="196" r="1" fill="#1B2433"/><circle cx="808" cy="196" r="1" fill="#1B2433"/><circle cx="60" cy="230" r="1" fill="#1B2433"/><circle cx="94" cy="230" r="1" fill="#1B2433"/><circle cx="128" cy="230" r="1" fill="#1B2433"/><circle cx="162" cy="230" r="1" fill="#1B2433"/><circle cx="196" cy="230" r="1" fill="#1B2433"/><circle cx="230" cy="230" r="1" fill="#1B2433"/><circle cx="264" cy="230" r="1" fill="#1B2433"/><circle cx="298" cy="230" r="1" fill="#1B2433"/><circle cx="332" cy="230" r="1" fill="#1B2433"/><circle cx="366" cy="230" r="1" fill="#1B2433"/><circle cx="400" cy="230" r="1" fill="#1B2433"/><circle cx="434" cy="230" r="1" fill="#1B2433"/><circle cx="468" cy="230" r="1" fill="#1B2433"/><circle cx="502" cy="230" r="1" fill="#1B2433"/><circle cx="536" cy="230" r="1" fill="#1B2433"/><circle cx="570" cy="230" r="1" fill="#1B2433"/><circle cx="604" cy="230" r="1" fill="#1B2433"/><circle cx="638" cy="230" r="1" fill="#1B2433"/><circle cx="672" cy="230" r="1" fill="#1B2433"/><circle cx="706" cy="230" r="1" fill="#1B2433"/><circle cx="740" cy="230" r="1" fill="#1B2433"/><circle cx="774" cy="230" r="1" fill="#1B2433"/><circle cx="808" cy="230" r="1" fill="#1B2433"/><circle cx="60" cy="264" r="1" fill="#1B2433"/><circle cx="94" cy="264" r="1" fill="#1B2433"/><circle cx="128" cy="264" r="1" fill="#1B2433"/><circle cx="162" cy="264" r="1" fill="#1B2433"/><circle cx="196" cy="264" r="1" fill="#1B2433"/><circle cx="230" cy="264" r="1" fill="#1B2433"/><circle cx="264" cy="264" r="1" fill="#1B2433"/><circle cx="298" cy="264" r="1" fill="#1B2433"/><circle cx="332" cy="264" r="1" fill="#1B2433"/><circle cx="366" cy="264" r="1" fill="#1B2433"/><circle cx="400" cy="264" r="1" fill="#1B2433"/><circle cx="434" cy="264" r="1" fill="#1B2433"/><circle cx="468" cy="264" r="1" fill="#1B2433"/><circle cx="502" cy="264" r="1" fill="#1B2433"/><circle cx="536" cy="264" r="1" fill="#1B2433"/><circle cx="570" cy="264" r="1" fill="#1B2433"/><circle cx="604" cy="264" r="1" fill="#1B2433"/><circle cx="638" cy="264" r="1" fill="#1B2433"/><circle cx="672" cy="264" r="1" fill="#1B2433"/><circle cx="706" cy="264" r="1" fill="#1B2433"/><circle cx="740" cy="264" r="1" fill="#1B2433"/><circle cx="774" cy="264" r="1" fill="#1B2433"/><circle cx="808" cy="264" r="1" fill="#1B2433"/><circle cx="60" cy="298" r="1" fill="#1B2433"/><circle cx="94" cy="298" r="1" fill="#1B2433"/><circle cx="128" cy="298" r="1" fill="#1B2433"/><circle cx="162" cy="298" r="1" fill="#1B2433"/><circle cx="196" cy="298" r="1" fill="#1B2433"/><circle cx="230" cy="298" r="1" fill="#1B2433"/><circle cx="264" cy="298" r="1" fill="#1B2433"/><circle cx="298" cy="298" r="1" fill="#1B2433"/><circle cx="332" cy="298" r="1" fill="#1B2433"/><circle cx="366" cy="298" r="1" fill="#1B2433"/><circle cx="400" cy="298" r="1" fill="#1B2433"/><circle cx="434" cy="298" r="1" fill="#1B2433"/><circle cx="468" cy="298" r="1" fill="#1B2433"/><circle cx="502" cy="298" r="1" fill="#1B2433"/><circle cx="536" cy="298" r="1" fill="#1B2433"/><circle cx="570" cy="298" r="1" fill="#1B2433"/><circle cx="604" cy="298" r="1" fill="#1B2433"/><circle cx="638" cy="298" r="1" fill="#1B2433"/><circle cx="672" cy="298" r="1" fill="#1B2433"/><circle cx="706" cy="298" r="1" fill="#1B2433"/><circle cx="740" cy="298" r="1" fill="#1B2433"/><circle cx="774" cy="298" r="1" fill="#1B2433"/><circle cx="808" cy="298" r="1" fill="#1B2433"/></g>

  <g opacity="0.95"><line x1="980" y1="110" x2="1090" y2="70" stroke="url(#edgeGrad)" stroke-width="1.1"/><line x1="980" y1="110" x2="1040" y2="185" stroke="url(#edgeGrad)" stroke-width="1.1"/><line x1="980" y1="110" x2="905" y2="195" stroke="url(#edgeGrad)" stroke-width="1.1"/><line x1="1090" y1="70" x2="1160" y2="150" stroke="url(#edgeGrad)" stroke-width="1.1"/><line x1="1160" y1="150" x2="1040" y2="185" stroke="url(#edgeGrad)" stroke-width="1.1"/><line x1="1160" y1="150" x2="1200" y2="95" stroke="url(#edgeGrad)" stroke-width="1.1"/><line x1="1040" y1="185" x2="1120" y2="250" stroke="url(#edgeGrad)" stroke-width="1.1"/><line x1="1120" y1="250" x2="995" y2="270" stroke="url(#edgeGrad)" stroke-width="1.1"/><line x1="995" y1="270" x2="905" y2="195" stroke="url(#edgeGrad)" stroke-width="1.1"/><line x1="1040" y1="185" x2="995" y2="270" stroke="url(#edgeGrad)" stroke-width="1.1"/><line x1="1090" y1="70" x2="1200" y2="95" stroke="url(#edgeGrad)" stroke-width="1.1"/></g>
  <g><circle cx="980" cy="110" r="7" fill="#2DD4BF" filter="url(#glow)"/><circle cx="980" cy="110" r="7" fill="#7DF0DE"/><circle cx="1090" cy="70" r="5" fill="#0B1018" stroke="#2DD4BF" stroke-width="1.4"/><circle cx="1160" cy="150" r="9" fill="#2DD4BF" filter="url(#glow)"/><circle cx="1160" cy="150" r="9" fill="#7DF0DE"/><circle cx="1040" cy="185" r="5" fill="#0B1018" stroke="#2DD4BF" stroke-width="1.4"/><circle cx="1120" cy="250" r="6" fill="#0B1018" stroke="#2DD4BF" stroke-width="1.4"/><circle cx="995" cy="270" r="8" fill="#2DD4BF" filter="url(#glow)"/><circle cx="995" cy="270" r="8" fill="#7DF0DE"/><circle cx="905" cy="195" r="5" fill="#0B1018" stroke="#2DD4BF" stroke-width="1.4"/><circle cx="1200" cy="95" r="4" fill="#0B1018" stroke="#2DD4BF" stroke-width="1.4"/></g>

  <rect x="88" y="110" width="34" height="3" rx="1.5" fill="#2DD4BF"/>
  <g transform="translate(88.00 96.00) scale(0.01417 -0.01417)" fill="#5BE9D2" fill-opacity="1.0"><path transform="translate(0.0 0)" d="M10.7998046875 0V6L252.4493408203125 780H486.4013671875L728.700927734375 6V0H575.9495849609375L376.4503173828125 665.0489501953125H352.4503173828125L151.6510009765625 0ZM195.300537109375 206.19921875 228.900634765625 321H500L533.60009765625 206.19921875Z"/><path transform="translate(1036.5 0)" d="M371.8497314453125 -14.3499755859375Q263.4498291015625 -14.3499755859375 188.12481689453125 36.8499755859375Q112.7998046875 88.0499267578125 73.499755859375 179.89990234375Q34.19970703125 271.7498779296875 34.19970703125 392.3499755859375Q34.19970703125 514.60009765625 74.47479248046875 604.7750854492188Q114.7498779296875 694.9500732421875 194.37493896484375 744.6500244140625Q274 794.3499755859375 392 794.3499755859375Q491.2001953125 794.3499755859375 559.500244140625 760.0499267578125Q627.80029296875 725.7498779296875 666.80029296875 664.2498779296875Q705.80029296875 602.7498779296875 716.4503173828125 520H573.9490966796875Q561.9490966796875 597.599609375 515.2743530273438 639.2743530273438Q468.599609375 680.9490966796875 388.9500732421875 680.9490966796875Q284.6005859375 680.9490966796875 233.9508056640625 604.4243774414062Q183.301025390625 527.899658203125 183.301025390625 392.0499267578125Q183.301025390625 250.7503662109375 236.6507568359375 173.900634765625Q290.00048828125 97.0509033203125 393.300048828125 97.0509033203125Q480.2496337890625 97.0509033203125 528.099365234375 148.22564697265625Q575.9490966796875 199.400390625 580.9490966796875 288.099853515625H348.699951171875V398.2506103515625H717.80029296875V0H607.6495361328125V92.099853515625H583.6495361328125Q562.9495849609375 50.3499755859375 513.7496337890625 18.0Q464.5496826171875 -14.3499755859375 371.8497314453125 -14.3499755859375Z"/><path transform="translate(2115.9 0)" d="M80.899658203125 0V780H601.700439453125V661.299072265625H228.0009765625V472.1502685546875H518.400390625V361.3494873046875H228.0009765625V118.700927734375H607.700439453125V0Z"/><path transform="translate(3069.4 0)" d="M80.899658203125 0V780H340.8017578125L606.60009765625 116.9510498046875H630.60009765625V780H765.101318359375V0H503.899169921875L238.7508544921875 663.0489501953125H215.40087890625V0Z"/><path transform="translate(4211.9 0)" d="M270.79931640625 0V661.299072265625H30V780H660V661.299072265625H419.20068359375V0Z"/><path transform="translate(5198.4 0)" d="M82.299560546875 0V780H230.700927734375V0Z"/><path transform="translate(5807.8 0)" d="M385.9500732421875 -15Q219.099853515625 -15 126.6497802734375 91.82501220703125Q34.19970703125 198.6500244140625 34.19970703125 390Q34.19970703125 580.39990234375 125.8497314453125 687.699951171875Q217.499755859375 795 385.300048828125 795Q484.80029296875 795 556.2254028320312 757.5499267578125Q627.6505126953125 720.099853515625 668.4755249023438 653.499755859375Q709.300537109375 586.899658203125 716.6505126953125 499.599609375H568.5491943359375Q559.8492431640625 584.0494384765625 511.52447509765625 632.8242797851562Q463.19970703125 681.59912109375 385.2501220703125 681.59912109375Q287.9505615234375 681.59912109375 237.57586669921875 605.2743530273438Q187.201171875 528.9495849609375 187.201171875 389.3499755859375Q187.201171875 246.1502685546875 238.90087890625 172.27557373046875Q290.6005859375 98.40087890625 384.2501220703125 98.40087890625Q465.899658203125 98.40087890625 513.5494384765625 149.20068359375Q561.19921875 200.00048828125 568.5491943359375 280.400390625H716.6505126953125Q709.300537109375 193.4503173828125 668.4755249023438 126.67523193359375Q627.6505126953125 59.900146484375 556.7254028320312 22.4500732421875Q485.80029296875 -15 385.9500732421875 -15Z"/><path transform="translate(7387.8 0)" d="M10.7998046875 0V6L252.4493408203125 780H486.4013671875L728.700927734375 6V0H575.9495849609375L376.4503173828125 665.0489501953125H352.4503173828125L151.6510009765625 0ZM195.300537109375 206.19921875 228.900634765625 321H500L533.60009765625 206.19921875Z"/><path transform="translate(8424.2 0)" d="M82.299560546875 0V780H230.700927734375V0Z"/><path transform="translate(9570.2 0)" d="M80.899658203125 0V780H350.8502197265625Q556.7503662109375 780 649.5254516601562 677.5Q742.300537109375 575 742.300537109375 390Q742.300537109375 205 649.5254516601562 102.5Q556.7503662109375 0 350.8502197265625 0ZM229.6510009765625 117.40087890625H340.8502197265625Q426.2496337890625 117.40087890625 481.2493896484375 144.0506591796875Q536.2491455078125 170.700439453125 562.7741088867188 230.52520751953125Q589.299072265625 290.3499755859375 589.299072265625 390Q589.299072265625 490 562.7741088867188 549.6497802734375Q536.2491455078125 609.299560546875 481.2493896484375 635.9493408203125Q426.2496337890625 662.59912109375 340.8502197265625 662.59912109375H229.6510009765625Z"/><path transform="translate(10643.6 0)" d="M80.899658203125 0V780H601.700439453125V661.299072265625H228.0009765625V472.1502685546875H518.400390625V361.3494873046875H228.0009765625V118.700927734375H607.700439453125V0Z"/><path transform="translate(11597.1 0)" d="M360.900146484375 -15Q275.1497802734375 -15 214.399658203125 8.27508544921875Q153.6495361328125 31.5501708984375 114.799560546875 70.67523193359375Q75.9495849609375 109.80029296875 56.399658203125 158.17523193359375Q36.8497314453125 206.5501708984375 33.499755859375 256.7498779296875H172.700927734375Q175.0509033203125 217.2501220703125 196.4508056640625 180.92535400390625Q217.8507080078125 144.6005859375 260.12554931640625 121.500732421875Q302.400390625 98.40087890625 365.900146484375 98.40087890625Q434.7498779296875 98.40087890625 470.27459716796875 127.3507080078125Q505.79931640625 156.300537109375 505.79931640625 204.5501708984375Q505.79931640625 251.499755859375 473.399658203125 279.2496337890625Q441 306.99951171875 389.700439453125 324.099365234375L289.99951171875 357.5496826171875Q234.9495849609375 375.899658203125 184.57464599609375 402.0496826171875Q134.19970703125 428.19970703125 101.8497314453125 471.17474365234375Q69.499755859375 514.1497802734375 69.499755859375 582.1497802734375Q69.499755859375 650.7498779296875 103.77484130859375 698.0499267578125Q138.0499267578125 745.3499755859375 198.62506103515625 770.1749877929688Q259.2001953125 795 338.100341796875 795Q437.5506591796875 795 497.20068359375 760.8749389648438Q556.8507080078125 726.7498779296875 585.2256469726562 673.4248657226562Q613.6005859375 620.099853515625 618.900634765625 560H479.699462890625Q477.3494873046875 591.1497802734375 462.4495849609375 619.2745971679688Q447.5496826171875 647.3994140625 416.099853515625 665.1492919921875Q384.6500244140625 682.899169921875 332.1502685546875 682.899169921875Q274.00048828125 682.899169921875 243.30078125 657.9743041992188Q212.60107421875 633.0494384765625 212.60107421875 592.7998046875Q212.60107421875 548.500244140625 246.0506591796875 523.0504150390625Q279.500244140625 497.6005859375 331.099853515625 480.20068359375L431.1507568359375 446.7503662109375Q486.8507080078125 428.7503662109375 536.3756713867188 402.100341796875Q585.900634765625 375.4503173828125 617.400634765625 331.6502685546875Q648.900634765625 287.8502197265625 648.900634765625 216.2001953125Q648.900634765625 107.5501708984375 572.2755737304688 46.27508544921875Q495.6505126953125 -15 360.900146484375 -15Z"/><path transform="translate(12586.6 0)" d="M82.299560546875 0V780H230.700927734375V0Z"/><path transform="translate(13196.1 0)" d="M371.8497314453125 -14.3499755859375Q263.4498291015625 -14.3499755859375 188.12481689453125 36.8499755859375Q112.7998046875 88.0499267578125 73.499755859375 179.89990234375Q34.19970703125 271.7498779296875 34.19970703125 392.3499755859375Q34.19970703125 514.60009765625 74.47479248046875 604.7750854492188Q114.7498779296875 694.9500732421875 194.37493896484375 744.6500244140625Q274 794.3499755859375 392 794.3499755859375Q491.2001953125 794.3499755859375 559.500244140625 760.0499267578125Q627.80029296875 725.7498779296875 666.80029296875 664.2498779296875Q705.80029296875 602.7498779296875 716.4503173828125 520H573.9490966796875Q561.9490966796875 597.599609375 515.2743530273438 639.2743530273438Q468.599609375 680.9490966796875 388.9500732421875 680.9490966796875Q284.6005859375 680.9490966796875 233.9508056640625 604.4243774414062Q183.301025390625 527.899658203125 183.301025390625 392.0499267578125Q183.301025390625 250.7503662109375 236.6507568359375 173.900634765625Q290.00048828125 97.0509033203125 393.300048828125 97.0509033203125Q480.2496337890625 97.0509033203125 528.099365234375 148.22564697265625Q575.9490966796875 199.400390625 580.9490966796875 288.099853515625H348.699951171875V398.2506103515625H717.80029296875V0H607.6495361328125V92.099853515625H583.6495361328125Q562.9495849609375 50.3499755859375 513.7496337890625 18.0Q464.5496826171875 -14.3499755859375 371.8497314453125 -14.3499755859375Z"/><path transform="translate(14275.5 0)" d="M80.899658203125 0V780H340.8017578125L606.60009765625 116.9510498046875H630.60009765625V780H765.101318359375V0H503.899169921875L238.7508544921875 663.0489501953125H215.40087890625V0Z"/><path transform="translate(15954.5 0)" d="M360.900146484375 -15Q275.1497802734375 -15 214.399658203125 8.27508544921875Q153.6495361328125 31.5501708984375 114.799560546875 70.67523193359375Q75.9495849609375 109.80029296875 56.399658203125 158.17523193359375Q36.8497314453125 206.5501708984375 33.499755859375 256.7498779296875H172.700927734375Q175.0509033203125 217.2501220703125 196.4508056640625 180.92535400390625Q217.8507080078125 144.6005859375 260.12554931640625 121.500732421875Q302.400390625 98.40087890625 365.900146484375 98.40087890625Q434.7498779296875 98.40087890625 470.27459716796875 127.3507080078125Q505.79931640625 156.300537109375 505.79931640625 204.5501708984375Q505.79931640625 251.499755859375 473.399658203125 279.2496337890625Q441 306.99951171875 389.700439453125 324.099365234375L289.99951171875 357.5496826171875Q234.9495849609375 375.899658203125 184.57464599609375 402.0496826171875Q134.19970703125 428.19970703125 101.8497314453125 471.17474365234375Q69.499755859375 514.1497802734375 69.499755859375 582.1497802734375Q69.499755859375 650.7498779296875 103.77484130859375 698.0499267578125Q138.0499267578125 745.3499755859375 198.62506103515625 770.1749877929688Q259.2001953125 795 338.100341796875 795Q437.5506591796875 795 497.20068359375 760.8749389648438Q556.8507080078125 726.7498779296875 585.2256469726562 673.4248657226562Q613.6005859375 620.099853515625 618.900634765625 560H479.699462890625Q477.3494873046875 591.1497802734375 462.4495849609375 619.2745971679688Q447.5496826171875 647.3994140625 416.099853515625 665.1492919921875Q384.6500244140625 682.899169921875 332.1502685546875 682.899169921875Q274.00048828125 682.899169921875 243.30078125 657.9743041992188Q212.60107421875 633.0494384765625 212.60107421875 592.7998046875Q212.60107421875 548.500244140625 246.0506591796875 523.0504150390625Q279.500244140625 497.6005859375 331.099853515625 480.20068359375L431.1507568359375 446.7503662109375Q486.8507080078125 428.7503662109375 536.3756713867188 402.100341796875Q585.900634765625 375.4503173828125 617.400634765625 331.6502685546875Q648.900634765625 287.8502197265625 648.900634765625 216.2001953125Q648.900634765625 107.5501708984375 572.2755737304688 46.27508544921875Q495.6505126953125 -15 360.900146484375 -15Z"/><path transform="translate(16943.9 0)" d="M270.79931640625 0V661.299072265625H30V780H660V661.299072265625H419.20068359375V0Z"/><path transform="translate(17930.4 0)" d="M396.1502685546875 -14.6500244140625Q230.300048828125 -14.6500244140625 150.599853515625 72.67498779296875Q70.899658203125 160 70.899658203125 323V780H221.301025390625V324.500244140625Q221.301025390625 218.0009765625 261.6507568359375 162.60107421875Q302.00048828125 107.201171875 398.1502685546875 107.201171875Q494.9500732421875 107.201171875 534.9747924804688 162.60107421875Q574.99951171875 218.0009765625 574.99951171875 324.500244140625V780H721.40087890625V323Q721.40087890625 160 642.3756713867188 72.67498779296875Q563.3504638671875 -14.6500244140625 396.1502685546875 -14.6500244140625Z"/><path transform="translate(19019.9 0)" d="M80.899658203125 0V780H350.8502197265625Q556.7503662109375 780 649.5254516601562 677.5Q742.300537109375 575 742.300537109375 390Q742.300537109375 205 649.5254516601562 102.5Q556.7503662109375 0 350.8502197265625 0ZM229.6510009765625 117.40087890625H340.8502197265625Q426.2496337890625 117.40087890625 481.2493896484375 144.0506591796875Q536.2491455078125 170.700439453125 562.7741088867188 230.52520751953125Q589.299072265625 290.3499755859375 589.299072265625 390Q589.299072265625 490 562.7741088867188 549.6497802734375Q536.2491455078125 609.299560546875 481.2493896484375 635.9493408203125Q426.2496337890625 662.59912109375 340.8502197265625 662.59912109375H229.6510009765625Z"/><path transform="translate(20093.4 0)" d="M82.299560546875 0V780H230.700927734375V0Z"/><path transform="translate(20702.8 0)" d="M398.2365232331982 -14Q276 -14 194.88323505108173 35.5Q113.76647010216347 85 73.98308856670673 176.0Q34.19970703125 267 34.19970703125 390Q34.19970703125 514 73.98308856670673 604.5Q113.76647010216347 695 194.88323505108173 744.5Q276 794 398.2365232331982 794Q521.500244140625 794 602.1115010142838 744.5Q682.7227578879426 695 722.5116474986588 604.5Q762.300537109375 514 762.300537109375 390Q762.300537109375 267 722.5116474986588 176.0Q682.7227578879426 85 602.1115010142838 35.5Q521.500244140625 -14 398.2365232331982 -14ZM398.2501220703125 99.40087890625Q506.599609375 99.40087890625 557.9493408203125 175.400634765625Q609.299072265625 251.400390625 609.299072265625 390.32501220703125Q609.299072265625 529.2496337890625 557.9493408203125 604.9243774414062Q506.599609375 680.59912109375 398.2501220703125 680.59912109375Q289.900634765625 680.59912109375 238.5509033203125 604.9243774414062Q187.201171875 529.2496337890625 187.201171875 390.32501220703125Q187.201171875 251.400390625 238.5509033203125 175.400634765625Q289.900634765625 99.40087890625 398.2501220703125 99.40087890625Z"/></g>
  <g transform="translate(84.00 214.00) scale(0.11000 -0.11000)" fill="url(#wmGrad)" fill-opacity="1.0"><path transform="translate(0.0 0)" d="M400 -15Q231 -15 148.5 72.5Q66 160 66 323V780H236V328Q236 232 272.5 178.0Q309 124 402 124Q496 124 532.0 178.0Q568 232 568 328V780H734V323Q734 160 652.0 72.5Q570 -15 400 -15Z"/><path transform="translate(786.4 0)" d="M123 0Q95 32 83.5 72.5Q72 113 72 179V800H234V196Q234 120 251.0 77.5Q268 35 296 6V0Z"/><path transform="translate(1086.7 0)" d="M162 0Q139 27 125.5 65.0Q112 103 112 179V486H30V600H114V750H273V600H370V486H273V196Q273 117 291.0 75.0Q309 33 334 6V0Z"/><path transform="translate(1473.1 0)" d="M72 0V600H220V490H244Q250 520 266.5 546.5Q283 573 317.0 589.5Q351 606 408 606H440V460H396Q311 460 272.5 417.0Q234 374 234 288V0Z"/><path transform="translate(1929.5 0)" d="M325 -15Q183 -15 108.5 70.0Q34 155 34 301Q34 399 67.5 469.0Q101 539 165.5 577.0Q230 615 323 615Q457 615 528.5 534.0Q600 453 600 296V262H192Q197 186 231.5 142.5Q266 99 325 99Q372 99 400.5 127.0Q429 155 438 192H592Q583 137 552.0 90.0Q521 43 465.0 14.0Q409 -15 325 -15ZM192 364H442Q438 432 408.0 469.5Q378 507 322 507Q267 507 233.5 471.5Q200 436 192 364Z"/><path transform="translate(2545.8 0)" d="M330 -15Q181 -15 107.5 70.5Q34 156 34 300Q34 444 107.5 529.5Q181 615 330 615Q479 615 552.5 529.5Q626 444 626 300Q626 156 552.5 70.5Q479 -15 330 -15ZM330 93Q396.4 93 427.2 145.0Q458 197 458 300.5Q458 404 427.2 455.5Q396.4 507 330 507Q263.6 507 232.8 455.5Q202 404 202 300.5Q202 197 232.8 145.0Q263.6 93 330 93Z"/><path transform="translate(3192.2 0)" d="M74 0V600H224V510H248Q266 555 303.5 585.0Q341 615 414 615Q514 615 564.0 552.0Q614 489 614 381V0H452V354Q452 416 430.0 449.5Q408 483 358 483Q300 483 268.0 437.5Q236 392 236 324V0Z"/><path transform="translate(3858.5 0)" d="M8 0V6L243 780H506L742 6V0H570L381 650H357L166 0ZM203 195 238 321H500L535 195Z"/><path transform="translate(4594.9 0)" d="M76 0V780H244V0Z"/></g>
  <g transform="translate(90.00 262.00) scale(0.01750 -0.01750)" fill="#9DA9BD" fill-opacity="1.0"><path transform="translate(0.0 0)" d="M10.7998046875 0V6L252.4493408203125 780H486.4013671875L728.700927734375 6V0H575.9495849609375L376.4503173828125 665.0489501953125H352.4503173828125L151.6510009765625 0ZM195.300537109375 206.19921875 228.900634765625 321H500L533.60009765625 206.19921875Z"/><path transform="translate(757.1 0)" d="M82.299560546875 0V780H230.700927734375V0Z"/><path transform="translate(1344.4 0)" d="M292.400390625 -15Q198.3499755859375 -15 140.77484130859375 15.800048828125Q83.19970703125 46.60009765625 55.87469482421875 94.42510986328125Q28.5496826171875 142.2501220703125 24.899658203125 192H162.100830078125Q166.40087890625 164.60009765625 182.72589111328125 140.6502685546875Q199.0509033203125 116.700439453125 227.77581787109375 102.6005859375Q256.500732421875 88.500732421875 298.6505126953125 88.500732421875Q348.400390625 88.500732421875 372.2001953125 107.1005859375Q396 125.700439453125 396 155.5501708984375Q396 182.3499755859375 375.4500732421875 200.9498291015625Q354.900146484375 219.5496826171875 309.8502197265625 234.599609375L238.2001953125 258.9495849609375Q187.60009765625 276.9495849609375 145.52496337890625 298.4495849609375Q103.4498291015625 319.9495849609375 78.17474365234375 353.42462158203125Q52.899658203125 386.899658203125 52.899658203125 439.499755859375Q52.899658203125 518.4498291015625 111.7998046875 566.7249145507812Q170.699951171875 615 277.100341796875 615Q353.900634765625 615 403.30078125 590.3499755859375Q452.700927734375 565.699951171875 478.0009765625 524.199951171875Q503.301025390625 482.699951171875 507.301025390625 432H375.39990234375Q370.7498779296875 468.699951171875 345.39990234375 492.0496826171875Q320.0499267578125 515.3994140625 271.4503173828125 515.3994140625Q229.6505126953125 515.3994140625 208.22564697265625 498.47454833984375Q186.80078125 481.5496826171875 186.80078125 452.39990234375Q186.80078125 423.60009765625 208.8507080078125 404.8502197265625Q230.900634765625 386.100341796875 275.6505126953125 370.700439453125L347.300537109375 347.3504638671875Q397.900634765625 330.6505126953125 439.47576904296875 309.1505126953125Q481.0509033203125 287.6505126953125 505.47601318359375 254.02545166015625Q529.901123046875 220.400390625 529.901123046875 167.1502685546875Q529.901123046875 85.60009765625 469.02593994140625 35.300048828125Q408.1507568359375 -15 292.400390625 -15Z"/><path transform="translate(1921.6 0)" d="M112.39990234375 -200V-196.60009765625Q138.7998046875 -154.5501708984375 168.8497314453125 -98.62530517578125Q198.899658203125 -42.700439453125 222.299560546875 10.8492431640625L12.7998046875 594V600H154.60107421875L234.099853515625 378.0029296875Q247.3499755859375 340.9525146484375 260.42510986328125 299.12701416015625Q273.500244140625 257.301513671875 286.7503662109375 194.20068359375H310.7503662109375Q324.00048828125 257.301513671875 337.07562255859375 299.12701416015625Q350.1507568359375 340.9525146484375 363.40087890625 378.0029296875L442.899658203125 600H576.700927734375V594L385.00146484375 72.20068359375Q351.101318359375 -21.099853515625 318.30126953125 -91.02496337890625Q285.501220703125 -160.9500732421875 261.4512939453125 -200Z"/><path transform="translate(2528.7 0)" d="M292.400390625 -15Q198.3499755859375 -15 140.77484130859375 15.800048828125Q83.19970703125 46.60009765625 55.87469482421875 94.42510986328125Q28.5496826171875 142.2501220703125 24.899658203125 192H162.100830078125Q166.40087890625 164.60009765625 182.72589111328125 140.6502685546875Q199.0509033203125 116.700439453125 227.77581787109375 102.6005859375Q256.500732421875 88.500732421875 298.6505126953125 88.500732421875Q348.400390625 88.500732421875 372.2001953125 107.1005859375Q396 125.700439453125 396 155.5501708984375Q396 182.3499755859375 375.4500732421875 200.9498291015625Q354.900146484375 219.5496826171875 309.8502197265625 234.599609375L238.2001953125 258.9495849609375Q187.60009765625 276.9495849609375 145.52496337890625 298.4495849609375Q103.4498291015625 319.9495849609375 78.17474365234375 353.42462158203125Q52.899658203125 386.899658203125 52.899658203125 439.499755859375Q52.899658203125 518.4498291015625 111.7998046875 566.7249145507812Q170.699951171875 615 277.100341796875 615Q353.900634765625 615 403.30078125 590.3499755859375Q452.700927734375 565.699951171875 478.0009765625 524.199951171875Q503.301025390625 482.699951171875 507.301025390625 432H375.39990234375Q370.7498779296875 468.699951171875 345.39990234375 492.0496826171875Q320.0499267578125 515.3994140625 271.4503173828125 515.3994140625Q229.6505126953125 515.3994140625 208.22564697265625 498.47454833984375Q186.80078125 481.5496826171875 186.80078125 452.39990234375Q186.80078125 423.60009765625 208.8507080078125 404.8502197265625Q230.900634765625 386.100341796875 275.6505126953125 370.700439453125L347.300537109375 347.3504638671875Q397.900634765625 330.6505126953125 439.47576904296875 309.1505126953125Q481.0509033203125 287.6505126953125 505.47601318359375 254.02545166015625Q529.901123046875 220.400390625 529.901123046875 167.1502685546875Q529.901123046875 85.60009765625 469.02593994140625 35.300048828125Q408.1507568359375 -15 292.400390625 -15Z"/><path transform="translate(3105.9 0)" d="M161.6500244140625 0Q139 27 125.5 65.0Q112 103 112 179V496.499267578125H30V600H114V750H253.7513427734375V600H352.501220703125V496.499267578125H254.4512939453125V196Q254.4512939453125 115.9500732421875 272.27630615234375 74.47503662109375Q290.101318359375 33 315.101318359375 6V0Z"/><path transform="translate(3506.0 0)" d="M321.1502685546875 -15Q182.6500244140625 -15 110.2498779296875 70.52496337890625Q37.8497314453125 156.0499267578125 37.8497314453125 300.6500244140625Q37.8497314453125 397.2501220703125 70.2998046875 467.42510986328125Q102.7498779296875 537.60009765625 165.5 576.300048828125Q228.2501220703125 615 319.500244140625 615Q449.6505126953125 615 518.70068359375 534.3499755859375Q587.7508544921875 453.699951171875 587.7508544921875 298.4498291015625V265.499755859375H177.301025390625Q182.301025390625 185.300048828125 218.90087890625 137.2503662109375Q255.500732421875 89.20068359375 321.500244140625 89.20068359375Q372 89.20068359375 402.77484130859375 118.6005859375Q433.5496826171875 148.00048828125 444.6495361328125 192H580.4508056640625Q570.0509033203125 134.900146484375 539.40087890625 88.07513427734375Q508.7508544921875 41.2501220703125 454.8507080078125 13.12506103515625Q400.9505615234375 -15 321.1502685546875 -15ZM177.6510009765625 359.100341796875H448.299560546875Q444.6495361328125 433.7498779296875 411.499755859375 474.22467041015625Q378.3499755859375 514.699462890625 318.500244140625 514.699462890625Q257.900634765625 514.699462890625 221.9508056640625 475.17474365234375Q186.0009765625 435.6500244140625 177.6510009765625 359.100341796875Z"/><path transform="translate(4146.1 0)" d="M78.19970703125 0V600H209.301025390625V509.6500244140625H233.301025390625Q249.2510986328125 555.4498291015625 287.12603759765625 585.2249145507812Q325.0009765625 615 391.8511962890625 615Q454.901123046875 615 496.22613525390625 587.1500244140625Q537.5511474609375 559.300048828125 558.501220703125 509.6500244140625H582.501220703125Q600.1512451171875 556.7498779296875 639.3761596679688 585.8749389648438Q678.60107421875 615 744.5511474609375 615Q842.2510986328125 615 889.0261840820312 551.4750366210938Q935.80126953125 487.9500732421875 935.80126953125 382.39990234375V0H792.699951171875V356.7998046875Q792.699951171875 423.7493896484375 770.9500732421875 460.37420654296875Q749.2001953125 496.9990234375 700.700439453125 496.9990234375Q641.500732421875 496.9990234375 610.0259399414062 446.97430419921875Q578.5511474609375 396.9495849609375 578.5511474609375 323.6500244140625V0H435.4498291015625V356.7998046875Q435.4498291015625 423.7493896484375 413.699951171875 460.37420654296875Q391.9500732421875 496.9990234375 343.4503173828125 496.9990234375Q284.900634765625 496.9990234375 253.100830078125 446.97430419921875Q221.301025390625 396.9495849609375 221.301025390625 323.6500244140625V0Z"/><path transform="translate(5169.3 0)" d="M292.400390625 -15Q198.3499755859375 -15 140.77484130859375 15.800048828125Q83.19970703125 46.60009765625 55.87469482421875 94.42510986328125Q28.5496826171875 142.2501220703125 24.899658203125 192H162.100830078125Q166.40087890625 164.60009765625 182.72589111328125 140.6502685546875Q199.0509033203125 116.700439453125 227.77581787109375 102.6005859375Q256.500732421875 88.500732421875 298.6505126953125 88.500732421875Q348.400390625 88.500732421875 372.2001953125 107.1005859375Q396 125.700439453125 396 155.5501708984375Q396 182.3499755859375 375.4500732421875 200.9498291015625Q354.900146484375 219.5496826171875 309.8502197265625 234.599609375L238.2001953125 258.9495849609375Q187.60009765625 276.9495849609375 145.52496337890625 298.4495849609375Q103.4498291015625 319.9495849609375 78.17474365234375 353.42462158203125Q52.899658203125 386.899658203125 52.899658203125 439.499755859375Q52.899658203125 518.4498291015625 111.7998046875 566.7249145507812Q170.699951171875 615 277.100341796875 615Q353.900634765625 615 403.30078125 590.3499755859375Q452.700927734375 565.699951171875 478.0009765625 524.199951171875Q503.301025390625 482.699951171875 507.301025390625 432H375.39990234375Q370.7498779296875 468.699951171875 345.39990234375 492.0496826171875Q320.0499267578125 515.3994140625 271.4503173828125 515.3994140625Q229.6505126953125 515.3994140625 208.22564697265625 498.47454833984375Q186.80078125 481.5496826171875 186.80078125 452.39990234375Q186.80078125 423.60009765625 208.8507080078125 404.8502197265625Q230.900634765625 386.100341796875 275.6505126953125 370.700439453125L347.300537109375 347.3504638671875Q397.900634765625 330.6505126953125 439.47576904296875 309.1505126953125Q481.0509033203125 287.6505126953125 505.47601318359375 254.02545166015625Q529.901123046875 220.400390625 529.901123046875 167.1502685546875Q529.901123046875 85.60009765625 469.02593994140625 35.300048828125Q408.1507568359375 -15 292.400390625 -15Z"/><path transform="translate(6003.6 0)" d="M161.6500244140625 0Q139 27 125.5 65.0Q112 103 112 179V496.499267578125H30V600H114V750H253.7513427734375V600H352.501220703125V496.499267578125H254.4512939453125V196Q254.4512939453125 115.9500732421875 272.27630615234375 74.47503662109375Q290.101318359375 33 315.101318359375 6V0Z"/><path transform="translate(6403.7 0)" d="M78.19970703125 0V800H221.301025390625V525.900146484375H245.301025390625Q266.0009765625 566.3499755859375 302.37591552734375 590.6749877929688Q338.7508544921875 615 400.0009765625 615Q501.0509033203125 615 550.1759643554688 551.4750366210938Q599.301025390625 487.9500732421875 599.301025390625 382.39990234375V0H456.19970703125V356.7998046875Q456.19970703125 424.3994140625 432.099853515625 460.69921875Q408 496.9990234375 354.8502197265625 496.9990234375Q291.6005859375 496.9990234375 256.4508056640625 447.29931640625Q221.301025390625 397.599609375 221.301025390625 323.6500244140625V0Z"/><path transform="translate(7090.9 0)" d="M281.1497802734375 -13.0499267578125Q199.599609375 -13.0499267578125 145.599609375 26.92510986328125Q91.599609375 66.900146484375 64.72467041015625 137.72515869140625Q37.8497314453125 208.5501708984375 37.8497314453125 300.6500244140625Q37.8497314453125 394.699951171875 65.0496826171875 464.87493896484375Q92.2496337890625 535.0499267578125 146.42462158203125 574.0499267578125Q200.599609375 613.0499267578125 281.19970703125 613.0499267578125Q345.9495849609375 613.0499267578125 386.4495849609375 587.1500244140625Q426.9495849609375 561.2501220703125 446.19970703125 522H470.19970703125V600H601.301025390625V0H470.19970703125V78H446.19970703125Q426.9495849609375 40.699951171875 386.599609375 13.82501220703125Q346.2496337890625 -13.0499267578125 281.1497802734375 -13.0499267578125ZM315.100341796875 92.5506591796875Q381 92.5506591796875 420.12481689453125 149.02545166015625Q459.2496337890625 205.500244140625 459.2496337890625 300Q459.2496337890625 395.1497802734375 420.12481689453125 451.299560546875Q381 507.4493408203125 315.100341796875 507.4493408203125Q253.80078125 507.4493408203125 219.67596435546875 454.62457275390625Q185.5511474609375 401.7998046875 185.5511474609375 300Q185.5511474609375 198.2001953125 219.67596435546875 145.37542724609375Q253.80078125 92.5506591796875 315.100341796875 92.5506591796875Z"/><path transform="translate(7788.0 0)" d="M161.6500244140625 0Q139 27 125.5 65.0Q112 103 112 179V496.499267578125H30V600H114V750H253.7513427734375V600H352.501220703125V496.499267578125H254.4512939453125V196Q254.4512939453125 115.9500732421875 272.27630615234375 74.47503662109375Q290.101318359375 33 315.101318359375 6V0Z"/><path transform="translate(8445.3 0)" d="M161.6500244140625 0Q139 27 125.5 65.0Q112 103 112 179V496.499267578125H30V600H114V750H253.7513427734375V600H352.501220703125V496.499267578125H254.4512939453125V196Q254.4512939453125 115.9500732421875 272.27630615234375 74.47503662109375Q290.101318359375 33 315.101318359375 6V0Z"/><path transform="translate(8845.4 0)" d="M78.19970703125 0V800H221.301025390625V525.900146484375H245.301025390625Q266.0009765625 566.3499755859375 302.37591552734375 590.6749877929688Q338.7508544921875 615 400.0009765625 615Q501.0509033203125 615 550.1759643554688 551.4750366210938Q599.301025390625 487.9500732421875 599.301025390625 382.39990234375V0H456.19970703125V356.7998046875Q456.19970703125 424.3994140625 432.099853515625 460.69921875Q408 496.9990234375 354.8502197265625 496.9990234375Q291.6005859375 496.9990234375 256.4508056640625 447.29931640625Q221.301025390625 397.599609375 221.301025390625 323.6500244140625V0Z"/><path transform="translate(9532.6 0)" d="M78.19970703125 0V600H221.301025390625V0ZM149.7503662109375 674.2496337890625Q110.9500732421875 674.2496337890625 90.52496337890625 695.1747436523438Q70.099853515625 716.099853515625 70.099853515625 750.0Q70.099853515625 783.900146484375 90.52496337890625 804.8252563476562Q110.9500732421875 825.7503662109375 149.7503662109375 825.7503662109375Q188.900634765625 825.7503662109375 209.1507568359375 804.8252563476562Q229.40087890625 783.900146484375 229.40087890625 750.0Q229.40087890625 716.099853515625 209.1507568359375 695.1747436523438Q188.900634765625 674.2496337890625 149.7503662109375 674.2496337890625Z"/><path transform="translate(9849.7 0)" d="M78.19970703125 0V600H209.301025390625V510H233.301025390625Q250.9510498046875 556.7498779296875 290.02593994140625 585.8749389648438Q329.100830078125 615 399.301025390625 615Q501.0509033203125 615 550.1759643554688 551.4750366210938Q599.301025390625 487.9500732421875 599.301025390625 382.39990234375V0H456.19970703125V356.7998046875Q456.19970703125 424.3994140625 432.099853515625 460.69921875Q408 496.9990234375 354.8502197265625 496.9990234375Q291.6005859375 496.9990234375 256.4508056640625 447.29931640625Q221.301025390625 397.599609375 221.301025390625 323.6500244140625V0Z"/><path transform="translate(10536.9 0)" d="M78.899658203125 0V800H221.301025390625V364.7503662109375H269.301025390625L447.100341796875 600H600.901611328125V594L387.8521728515625 319.300048828125L624.901611328125 6V0H455.8502197265625L269.301025390625 255.2496337890625H221.301025390625V0Z"/><path transform="translate(11193.0 0)" d="M45.6005859375 -150V-144Q70.20068359375 -103.099853515625 87.22564697265625 -67.62481689453125Q104.2506103515625 -32.1497802734375 115.6505126953125 -1.7498779296875Q85.2001953125 5.5501708984375 68.5501708984375 27.2503662109375Q51.900146484375 48.9505615234375 51.900146484375 81.8507080078125Q51.900146484375 119.6510009765625 74.62530517578125 143.02618408203125Q97.3504638671875 166.4013671875 139.500732421875 166.4013671875Q181.6510009765625 166.4013671875 204.37615966796875 140.8511962890625Q227.101318359375 115.301025390625 227.101318359375 66.6505126953125Q227.101318359375 21.500244140625 208.4013671875 -34.82501220703125Q189.701416015625 -91.1502685546875 156.901611328125 -150Z"/><path transform="translate(11746.3 0)" d="M78.19970703125 -200V600H209.301025390625V522H233.301025390625Q252.5511474609375 559.300048828125 292.901123046875 586.1749877929688Q333.2510986328125 613.0499267578125 400.9510498046875 613.0499267578125Q481.201171875 613.0499267578125 534.5511474609375 573.2498779296875Q587.901123046875 533.4498291015625 614.7760620117188 462.77484130859375Q641.6510009765625 392.099853515625 641.6510009765625 299.3499755859375Q641.6510009765625 206.300048828125 614.4510498046875 135.62506103515625Q587.2510986328125 64.9500732421875 533.7510986328125 25.9500732421875Q480.2510986328125 -13.0499267578125 401.6510009765625 -13.0499267578125Q342.60107421875 -13.0499267578125 304.60107421875 9.0Q266.60107421875 31.0499267578125 245.301025390625 68.099853515625H221.301025390625V-200ZM364.400390625 92.5506591796875Q425.699951171875 92.5506591796875 459.82476806640625 145.37542724609375Q493.9495849609375 198.2001953125 493.9495849609375 300Q493.9495849609375 401.7998046875 459.82476806640625 454.62457275390625Q425.699951171875 507.4493408203125 364.400390625 507.4493408203125Q298.500732421875 507.4493408203125 259.37591552734375 451.299560546875Q220.2510986328125 395.1497802734375 220.2510986328125 300Q220.2510986328125 205.500244140625 259.37591552734375 149.02545166015625Q298.500732421875 92.5506591796875 364.400390625 92.5506591796875Z"/><path transform="translate(12443.4 0)" d="M125.4498291015625 0Q99.5496826171875 30.2501220703125 87.3497314453125 69.87518310546875Q75.1497802734375 109.500244140625 75.1497802734375 179V800H218.2510986328125V194.9500732421875Q218.2510986328125 117.5501708984375 235.42608642578125 75.92510986328125Q252.60107421875 34.300048828125 279.5511474609375 6V0Z"/><path transform="translate(12762.6 0)" d="M281.1497802734375 -13.0499267578125Q199.599609375 -13.0499267578125 145.599609375 26.92510986328125Q91.599609375 66.900146484375 64.72467041015625 137.72515869140625Q37.8497314453125 208.5501708984375 37.8497314453125 300.6500244140625Q37.8497314453125 394.699951171875 65.0496826171875 464.87493896484375Q92.2496337890625 535.0499267578125 146.42462158203125 574.0499267578125Q200.599609375 613.0499267578125 281.19970703125 613.0499267578125Q345.9495849609375 613.0499267578125 386.4495849609375 587.1500244140625Q426.9495849609375 561.2501220703125 446.19970703125 522H470.19970703125V600H601.301025390625V0H470.19970703125V78H446.19970703125Q426.9495849609375 40.699951171875 386.599609375 13.82501220703125Q346.2496337890625 -13.0499267578125 281.1497802734375 -13.0499267578125ZM315.100341796875 92.5506591796875Q381 92.5506591796875 420.12481689453125 149.02545166015625Q459.2496337890625 205.500244140625 459.2496337890625 300Q459.2496337890625 395.1497802734375 420.12481689453125 451.299560546875Q381 507.4493408203125 315.100341796875 507.4493408203125Q253.80078125 507.4493408203125 219.67596435546875 454.62457275390625Q185.5511474609375 401.7998046875 185.5511474609375 300Q185.5511474609375 198.2001953125 219.67596435546875 145.37542724609375Q253.80078125 92.5506591796875 315.100341796875 92.5506591796875Z"/><path transform="translate(13459.7 0)" d="M78.19970703125 0V600H209.301025390625V510H233.301025390625Q250.9510498046875 556.7498779296875 290.02593994140625 585.8749389648438Q329.100830078125 615 399.301025390625 615Q501.0509033203125 615 550.1759643554688 551.4750366210938Q599.301025390625 487.9500732421875 599.301025390625 382.39990234375V0H456.19970703125V356.7998046875Q456.19970703125 424.3994140625 432.099853515625 460.69921875Q408 496.9990234375 354.8502197265625 496.9990234375Q291.6005859375 496.9990234375 256.4508056640625 447.29931640625Q221.301025390625 397.599609375 221.301025390625 323.6500244140625V0Z"/><path transform="translate(14146.9 0)" d="M45.6005859375 -150V-144Q70.20068359375 -103.099853515625 87.22564697265625 -67.62481689453125Q104.2506103515625 -32.1497802734375 115.6505126953125 -1.7498779296875Q85.2001953125 5.5501708984375 68.5501708984375 27.2503662109375Q51.900146484375 48.9505615234375 51.900146484375 81.8507080078125Q51.900146484375 119.6510009765625 74.62530517578125 143.02618408203125Q97.3504638671875 166.4013671875 139.500732421875 166.4013671875Q181.6510009765625 166.4013671875 204.37615966796875 140.8511962890625Q227.101318359375 115.301025390625 227.101318359375 66.6505126953125Q227.101318359375 21.500244140625 208.4013671875 -34.82501220703125Q189.701416015625 -91.1502685546875 156.901611328125 -150Z"/><path transform="translate(14700.1 0)" d="M281.1497802734375 -13.0499267578125Q199.599609375 -13.0499267578125 145.599609375 26.92510986328125Q91.599609375 66.900146484375 64.72467041015625 137.72515869140625Q37.8497314453125 208.5501708984375 37.8497314453125 300.6500244140625Q37.8497314453125 394.699951171875 65.0496826171875 464.87493896484375Q92.2496337890625 535.0499267578125 146.42462158203125 574.0499267578125Q200.599609375 613.0499267578125 281.19970703125 613.0499267578125Q345.9495849609375 613.0499267578125 386.4495849609375 587.1500244140625Q426.9495849609375 561.2501220703125 446.19970703125 522H470.19970703125V600H601.301025390625V0H470.19970703125V78H446.19970703125Q426.9495849609375 40.699951171875 386.599609375 13.82501220703125Q346.2496337890625 -13.0499267578125 281.1497802734375 -13.0499267578125ZM315.100341796875 92.5506591796875Q381 92.5506591796875 420.12481689453125 149.02545166015625Q459.2496337890625 205.500244140625 459.2496337890625 300Q459.2496337890625 395.1497802734375 420.12481689453125 451.299560546875Q381 507.4493408203125 315.100341796875 507.4493408203125Q253.80078125 507.4493408203125 219.67596435546875 454.62457275390625Q185.5511474609375 401.7998046875 185.5511474609375 300Q185.5511474609375 198.2001953125 219.67596435546875 145.37542724609375Q253.80078125 92.5506591796875 315.100341796875 92.5506591796875Z"/><path transform="translate(15397.3 0)" d="M78.19970703125 0V600H209.301025390625V510H233.301025390625Q250.9510498046875 556.7498779296875 290.02593994140625 585.8749389648438Q329.100830078125 615 399.301025390625 615Q501.0509033203125 615 550.1759643554688 551.4750366210938Q599.301025390625 487.9500732421875 599.301025390625 382.39990234375V0H456.19970703125V356.7998046875Q456.19970703125 424.3994140625 432.099853515625 460.69921875Q408 496.9990234375 354.8502197265625 496.9990234375Q291.6005859375 496.9990234375 256.4508056640625 447.29931640625Q221.301025390625 397.599609375 221.301025390625 323.6500244140625V0Z"/><path transform="translate(16084.4 0)" d="M277.8497314453125 -13.0499267578125Q197.599609375 -13.0499267578125 144.2496337890625 26.92510986328125Q90.899658203125 66.900146484375 64.02471923828125 137.72515869140625Q37.1497802734375 208.5501708984375 37.1497802734375 300.6500244140625Q37.1497802734375 394.699951171875 64.3497314453125 464.87493896484375Q91.5496826171875 535.0499267578125 145.0496826171875 574.0499267578125Q198.5496826171875 613.0499267578125 277.1497802734375 613.0499267578125Q336.8497314453125 613.0499267578125 374.69970703125 591.0Q412.5496826171875 568.9500732421875 433.499755859375 531.900146484375H457.499755859375V800H600.60107421875V0H469.499755859375V78H445.499755859375Q426.2496337890625 40.699951171875 385.899658203125 13.82501220703125Q345.5496826171875 -13.0499267578125 277.8497314453125 -13.0499267578125ZM314.400390625 92.5506591796875Q380.300048828125 92.5506591796875 419.42486572265625 149.02545166015625Q458.5496826171875 205.500244140625 458.5496826171875 300Q458.5496826171875 395.1497802734375 419.42486572265625 451.299560546875Q380.300048828125 507.4493408203125 314.400390625 507.4493408203125Q253.100830078125 507.4493408203125 218.97601318359375 454.62457275390625Q184.8511962890625 401.7998046875 184.8511962890625 300Q184.8511962890625 198.2001953125 218.97601318359375 145.37542724609375Q253.100830078125 92.5506591796875 314.400390625 92.5506591796875Z"/><path transform="translate(17038.7 0)" d="M281.1497802734375 -13.0499267578125Q199.599609375 -13.0499267578125 145.599609375 26.92510986328125Q91.599609375 66.900146484375 64.72467041015625 137.72515869140625Q37.8497314453125 208.5501708984375 37.8497314453125 300.6500244140625Q37.8497314453125 394.699951171875 65.0496826171875 464.87493896484375Q92.2496337890625 535.0499267578125 146.42462158203125 574.0499267578125Q200.599609375 613.0499267578125 281.19970703125 613.0499267578125Q345.9495849609375 613.0499267578125 386.4495849609375 587.1500244140625Q426.9495849609375 561.2501220703125 446.19970703125 522H470.19970703125V600H601.301025390625V0H470.19970703125V78H446.19970703125Q426.9495849609375 40.699951171875 386.599609375 13.82501220703125Q346.2496337890625 -13.0499267578125 281.1497802734375 -13.0499267578125ZM315.100341796875 92.5506591796875Q381 92.5506591796875 420.12481689453125 149.02545166015625Q459.2496337890625 205.500244140625 459.2496337890625 300Q459.2496337890625 395.1497802734375 420.12481689453125 451.299560546875Q381 507.4493408203125 315.100341796875 507.4493408203125Q253.80078125 507.4493408203125 219.67596435546875 454.62457275390625Q185.5511474609375 401.7998046875 185.5511474609375 300Q185.5511474609375 198.2001953125 219.67596435546875 145.37542724609375Q253.80078125 92.5506591796875 315.100341796875 92.5506591796875Z"/><path transform="translate(17735.9 0)" d="M314.4503173828125 -15Q178.60009765625 -15 108.22491455078125 70.52496337890625Q37.8497314453125 156.0499267578125 37.8497314453125 300Q37.8497314453125 449.8502197265625 111.5 532.4251098632812Q185.1502685546875 615 315.7503662109375 615Q429.8507080078125 615 496.62579345703125 553.5748901367188Q563.40087890625 492.1497802734375 576.7508544921875 383.499755859375H435.99951171875Q428.299560546875 444.2496337890625 397.8497314453125 477.17449951171875Q367.39990234375 510.099365234375 317.4503173828125 510.099365234375Q252.100830078125 510.099365234375 218.82598876953125 454.9495849609375Q185.5511474609375 399.7998046875 185.5511474609375 300Q185.5511474609375 200.2001953125 218.5009765625 145.0504150390625Q251.4508056640625 89.900634765625 316.80029296875 89.900634765625Q367.39990234375 89.900634765625 397.8497314453125 123.1505126953125Q428.299560546875 156.400390625 435.99951171875 216.500244140625H576.7508544921875Q562.0509033203125 108.80029296875 495.12579345703125 46.900146484375Q428.20068359375 -15 314.4503173828125 -15Z"/><path transform="translate(18363.0 0)" d="M161.6500244140625 0Q139 27 125.5 65.0Q112 103 112 179V496.499267578125H30V600H114V750H253.7513427734375V600H352.501220703125V496.499267578125H254.4512939453125V196Q254.4512939453125 115.9500732421875 272.27630615234375 74.47503662109375Q290.101318359375 33 315.101318359375 6V0Z"/><path transform="translate(18763.1 0)" d="M140.1507568359375 -6Q97.700439453125 -6 74.80029296875 17.7001953125Q51.900146484375 41.400390625 51.900146484375 80.900634765625Q51.900146484375 121.0509033203125 74.80029296875 144.42608642578125Q97.700439453125 167.80126953125 140.1507568359375 167.80126953125Q182.9510498046875 167.80126953125 205.02618408203125 144.42608642578125Q227.101318359375 121.0509033203125 227.101318359375 80.900634765625Q227.101318359375 41.400390625 205.02618408203125 17.7001953125Q182.9510498046875 -6 140.1507568359375 -6Z"/></g>

  <g opacity="0.9"><g transform="translate(88.00 322.00) scale(0.01083 -0.01083)" fill="#5A6478" fill-opacity="1.0"><path transform="translate(0.0 0)" d="M360.900146484375 -15Q275.1497802734375 -15 214.399658203125 8.27508544921875Q153.6495361328125 31.5501708984375 114.799560546875 70.67523193359375Q75.9495849609375 109.80029296875 56.399658203125 158.17523193359375Q36.8497314453125 206.5501708984375 33.499755859375 256.7498779296875H172.700927734375Q175.0509033203125 217.2501220703125 196.4508056640625 180.92535400390625Q217.8507080078125 144.6005859375 260.12554931640625 121.500732421875Q302.400390625 98.40087890625 365.900146484375 98.40087890625Q434.7498779296875 98.40087890625 470.27459716796875 127.3507080078125Q505.79931640625 156.300537109375 505.79931640625 204.5501708984375Q505.79931640625 251.499755859375 473.399658203125 279.2496337890625Q441 306.99951171875 389.700439453125 324.099365234375L289.99951171875 357.5496826171875Q234.9495849609375 375.899658203125 184.57464599609375 402.0496826171875Q134.19970703125 428.19970703125 101.8497314453125 471.17474365234375Q69.499755859375 514.1497802734375 69.499755859375 582.1497802734375Q69.499755859375 650.7498779296875 103.77484130859375 698.0499267578125Q138.0499267578125 745.3499755859375 198.62506103515625 770.1749877929688Q259.2001953125 795 338.100341796875 795Q437.5506591796875 795 497.20068359375 760.8749389648438Q556.8507080078125 726.7498779296875 585.2256469726562 673.4248657226562Q613.6005859375 620.099853515625 618.900634765625 560H479.699462890625Q477.3494873046875 591.1497802734375 462.4495849609375 619.2745971679688Q447.5496826171875 647.3994140625 416.099853515625 665.1492919921875Q384.6500244140625 682.899169921875 332.1502685546875 682.899169921875Q274.00048828125 682.899169921875 243.30078125 657.9743041992188Q212.60107421875 633.0494384765625 212.60107421875 592.7998046875Q212.60107421875 548.500244140625 246.0506591796875 523.0504150390625Q279.500244140625 497.6005859375 331.099853515625 480.20068359375L431.1507568359375 446.7503662109375Q486.8507080078125 428.7503662109375 536.3756713867188 402.100341796875Q585.900634765625 375.4503173828125 617.400634765625 331.6502685546875Q648.900634765625 287.8502197265625 648.900634765625 216.2001953125Q648.900634765625 107.5501708984375 572.2755737304688 46.27508544921875Q495.6505126953125 -15 360.900146484375 -15Z"/><path transform="translate(1016.1 0)" d="M82.299560546875 0V780H230.700927734375V0Z"/><path transform="translate(1652.2 0)" d="M80.899658203125 0V780H340.8017578125L606.60009765625 116.9510498046875H630.60009765625V780H765.101318359375V0H503.899169921875L238.7508544921875 663.0489501953125H215.40087890625V0Z"/><path transform="translate(2821.2 0)" d="M371.8497314453125 -14.3499755859375Q263.4498291015625 -14.3499755859375 188.12481689453125 36.8499755859375Q112.7998046875 88.0499267578125 73.499755859375 179.89990234375Q34.19970703125 271.7498779296875 34.19970703125 392.3499755859375Q34.19970703125 514.60009765625 74.47479248046875 604.7750854492188Q114.7498779296875 694.9500732421875 194.37493896484375 744.6500244140625Q274 794.3499755859375 392 794.3499755859375Q491.2001953125 794.3499755859375 559.500244140625 760.0499267578125Q627.80029296875 725.7498779296875 666.80029296875 664.2498779296875Q705.80029296875 602.7498779296875 716.4503173828125 520H573.9490966796875Q561.9490966796875 597.599609375 515.2743530273438 639.2743530273438Q468.599609375 680.9490966796875 388.9500732421875 680.9490966796875Q284.6005859375 680.9490966796875 233.9508056640625 604.4243774414062Q183.301025390625 527.899658203125 183.301025390625 392.0499267578125Q183.301025390625 250.7503662109375 236.6507568359375 173.900634765625Q290.00048828125 97.0509033203125 393.300048828125 97.0509033203125Q480.2496337890625 97.0509033203125 528.099365234375 148.22564697265625Q575.9490966796875 199.400390625 580.9490966796875 288.099853515625H348.699951171875V398.2506103515625H717.80029296875V0H607.6495361328125V92.099853515625H583.6495361328125Q562.9495849609375 50.3499755859375 513.7496337890625 18.0Q464.5496826171875 -14.3499755859375 371.8497314453125 -14.3499755859375Z"/><path transform="translate(3927.3 0)" d="M10.7998046875 0V6L252.4493408203125 780H486.4013671875L728.700927734375 6V0H575.9495849609375L376.4503173828125 665.0489501953125H352.4503173828125L151.6510009765625 0ZM195.300537109375 206.19921875 228.900634765625 321H500L533.60009765625 206.19921875Z"/><path transform="translate(4990.4 0)" d="M80.899658203125 0V780H390.100830078125Q539.7508544921875 780 608.5758666992188 717.199951171875Q677.40087890625 654.39990234375 677.40087890625 548.7998046875Q677.40087890625 443.19970703125 608.90087890625 380.07464599609375Q540.40087890625 316.9495849609375 390.100830078125 316.9495849609375H228.0009765625V0ZM228.0009765625 430.3504638671875H372.100341796875Q449.19970703125 430.3504638671875 488.7496337890625 457.17523193359375Q528.299560546875 484 528.299560546875 548.1497802734375Q528.299560546875 611.6495361328125 488.7496337890625 639.1243286132812Q449.19970703125 666.59912109375 372.100341796875 666.59912109375H228.0009765625Z"/><path transform="translate(6023.5 0)" d="M398.2365232331982 -14Q276 -14 194.88323505108173 35.5Q113.76647010216347 85 73.98308856670673 176.0Q34.19970703125 267 34.19970703125 390Q34.19970703125 514 73.98308856670673 604.5Q113.76647010216347 695 194.88323505108173 744.5Q276 794 398.2365232331982 794Q521.500244140625 794 602.1115010142838 744.5Q682.7227578879426 695 722.5116474986588 604.5Q762.300537109375 514 762.300537109375 390Q762.300537109375 267 722.5116474986588 176.0Q682.7227578879426 85 602.1115010142838 35.5Q521.500244140625 -14 398.2365232331982 -14ZM398.2501220703125 99.40087890625Q506.599609375 99.40087890625 557.9493408203125 175.400634765625Q609.299072265625 251.400390625 609.299072265625 390.32501220703125Q609.299072265625 529.2496337890625 557.9493408203125 604.9243774414062Q506.599609375 680.59912109375 398.2501220703125 680.59912109375Q289.900634765625 680.59912109375 238.5509033203125 604.9243774414062Q187.201171875 529.2496337890625 187.201171875 390.32501220703125Q187.201171875 251.400390625 238.5509033203125 175.400634765625Q289.900634765625 99.40087890625 398.2501220703125 99.40087890625Z"/><path transform="translate(7143.5 0)" d="M80.899658203125 0V780H397.900634765625Q497.5506591796875 780 559.1757202148438 751.6749877929688Q620.80078125 723.3499755859375 649.4258422851562 674.7249145507812Q678.0509033203125 626.099853515625 678.0509033203125 563.5496826171875Q678.0509033203125 488.8497314453125 637.8259887695312 435.5496826171875Q597.60107421875 382.2496337890625 519.1512451171875 360.299560546875L699.40087890625 6V0H542.3994140625L375 339.4493408203125H227.301025390625V0ZM227.301025390625 448.8502197265625H379.8502197265625Q453.599609375 448.8502197265625 490.62457275390625 474.52496337890625Q527.6495361328125 500.19970703125 527.6495361328125 557.899658203125Q527.6495361328125 616.599609375 490.299560546875 641.599365234375Q452.9495849609375 666.59912109375 379.8502197265625 666.59912109375H227.301025390625Z"/><path transform="translate(8186.6 0)" d="M80.899658203125 0V780H601.700439453125V661.299072265625H228.0009765625V472.1502685546875H518.400390625V361.3494873046875H228.0009765625V118.700927734375H607.700439453125V0Z"/></g></g>
  <circle cx="88.0" cy="0" r="0" fill="none"/>

  <!-- thin bottom accent line -->
  <rect x="0" y="356" width="1280" height="4" fill="#2DD4BF" opacity="0.0"/>
  <line x1="0" y1="359" x2="1280" y2="359" stroke="#16A394" stroke-width="2" opacity="0.5"/>
</svg>